<svg xmlns="http://www.w3.org/2000/svg" xmlns:xlink="http://www.w3.org/1999/xlink" xml:space="preserve" viewBox="0 0 183.099 183.092"><defs><linearGradient id="f"><stop offset="0" stop-color="#94f3d4"/><stop offset="1" stop-color="#32e8e4"/></linearGradient><linearGradient id="e"><stop offset="0" stop-color="#9bf1e0"/><stop offset=".5" stop-color="#53e8d5"/><stop offset="1" stop-color="#3bccde"/></linearGradient><linearGradient id="c"><stop offset="0" stop-color="#21cad2"/><stop offset="1" stop-color="#287fe8"/></linearGradient><linearGradient id="b"><stop offset="0" stop-color="#eb5e46"/><stop offset=".5" stop-color="#d8264d"/><stop offset=".75" stop-color="#801879"/><stop offset="1" stop-color="#41107c"/></linearGradient><linearGradient id="a"><stop offset="0" stop-color="#f7be76"/><stop offset=".115" stop-color="#fb8058"/><stop offset=".5" stop-color="#f22556"/><stop offset=".75" stop-color="#c338c0"/><stop offset="1" stop-color="#5118a7"/></linearGradient><linearGradient id="d"><stop offset="0" stop-color="#51f0d7"/><stop offset="1" stop-color="#43e4ec"/></linearGradient><linearGradient xlink:href="#a" id="i" x1="-147.61" x2="-147.61" y1="337.408" y2="520.5" gradientTransform="translate(255.579 -293.487)" gradientUnits="userSpaceOnUse"/><linearGradient xlink:href="#b" id="h" x1="-185.889" x2="-185.889" y1="557.574" y2="740.665" gradientTransform="translate(293.858 -513.653)" gradientUnits="userSpaceOnUse"/><linearGradient xlink:href="#c" id="j" x1="111.815" x2="219.594" y1="443.084" y2="550.863" gradientTransform="translate(-8.996 -326.496)" gradientUnits="userSpaceOnUse"/><linearGradient xlink:href="#d" id="k" x1="111.815" x2="219.594" y1="443.084" y2="550.863" gradientTransform="translate(-8.996 -326.496)" gradientUnits="userSpaceOnUse"/><linearGradient id="g"><stop offset="0" stop-color="#eefcdc"/><stop offset=".298" stop-color="#99f2d9"/><stop offset=".547" stop-color="#5df0e1"/><stop offset=".754" stop-color="#40dfe3"/><stop offset="1" stop-color="#36c1d2"/></linearGradient><linearGradient xlink:href="#e" id="n" x1="668.035" x2="668.035" y1="123.182" y2="147.68" gradientUnits="userSpaceOnUse"/><linearGradient xlink:href="#f" id="l" x1="-309.761" x2="-397.36" y1="775.86" y2="863.459" gradientTransform="translate(523.875 -731.94)" gradientUnits="userSpaceOnUse"/><radialGradient xlink:href="#g" id="m" cx="-328.143" cy="766.462" r="56.698" fx="-328.143" fy="766.462" gradientTransform="matrix(3.6714 0 0 1.46073 1400.478 -1072.97)" gradientUnits="userSpaceOnUse"/></defs><g paint-order="fill markers stroke"><path fill="url(#h)" stroke="url(#i)" stroke-linecap="round" stroke-miterlimit="4.2" stroke-width="5.292" d="M52.917 46.567a6.35 6.35 0 0 0-6.35 6.35v165.1a6.35 6.35 0 0 0 6.35 6.35H165.1l-88.9-88.9 88.9-88.9Z" transform="translate(-43.92 -43.92)"/><path fill="url(#j)" stroke="url(#k)" stroke-linecap="round" stroke-miterlimit="4.2" stroke-width="5.292" d="M180.067 224.367h40.438l-110.629-107.61-18.709 18.71Z" transform="translate(-43.92 -43.92)"/><path fill="url(#l)" stroke="url(#m)" stroke-linecap="round" stroke-miterlimit="4.2" stroke-width="5.292" d="M180.067 46.567h40.383l-84.381 81.246-18.71-18.709z" transform="translate(-43.92 -43.92)"/><path fill="#fff" d="M12.38 13.703h5.292l3.891 6.615 4.047-6.615h5.29L24.816 25.61l6.085 11.906H25.61L21.76 30.9l-4.088 6.615h-5.291l6.085-11.906zm27.155 5.292c-4.682 0-8.634 3.99-8.634 9.104 0 5.114 3.952 9.417 8.634 9.417 2.487-.002 5.302-.397 7.209-2.109l-2.289-3.148c-1.628.83-2.536 1.41-4.198 1.452-2.38 0-4.44-1.83-4.441-4.086 4.283 0 12.019-.004 12.019-.004v-2.817c0-5.114-3.619-7.809-8.3-7.809zm.025 3.799c2.067 0 3.743 1.624 3.743 3.628h-7.487c0-2.004 1.676-3.628 3.744-3.628z"/><path fill="#1fcbdf" stroke="url(#n)" stroke-linecap="round" stroke-miterlimit="4.2" stroke-width="5.292" d="m638.153 126.178-9.329 9.354 9.33 9.355h64.373s.583.023.744 0c3.939-.57 5.096-6.649 5.096-9.355 0-2.706-1.157-8.785-5.096-9.354-.163-.024-.756 0-.756 0z" class="UnoptimicedTransforms" transform="translate(-527.921 -43.986)"/></g></svg>